<?xml version="1.0" encoding="UTF-8"?>
<svg id="Layer_2" data-name="Layer 2" xmlns="http://www.w3.org/2000/svg" viewBox="0 0 20.25 20.25">
  <defs>
    <style>
      .cls-1 {
        fill: #5c2c85;
      }
    </style>
  </defs>
  <g id="Layer_1-2" data-name="Layer 1">
    <path class="cls-1" d="M19.01,7.4h-6.16V1.43c0-.79-.64-1.43-1.43-1.43h-2.59c-.79,0-1.43,.64-1.43,1.43V7.4H1.23c-.68,0-1.23,.55-1.23,1.23v2.99c0,.68,.55,1.23,1.23,1.23H7.4v5.96c0,.79,.64,1.43,1.43,1.43h2.59c.79,0,1.43-.64,1.43-1.43v-5.96h6.16c.68,0,1.23-.55,1.23-1.23v-2.99c0-.68-.55-1.23-1.23-1.23Z"/>
  </g>
</svg>