<?xml version="1.0" encoding="UTF-8"?>
<svg id="Layer_2" data-name="Layer 2" xmlns="http://www.w3.org/2000/svg" viewBox="0 0 25.78 25.78">
  <defs>
    <style>
      .cls-1 {
        fill: #f4f4f5;
      }

      .cls-2 {
        fill: #5c2c85;
      }
    </style>
  </defs>
  <g id="Layer_1-2" data-name="Layer 1">
    <circle class="cls-1" cx="12.89" cy="12.89" r="12.89"/>
    <path class="cls-2" d="M18.73,17.31l-3.88-3.88,3.88-3.88c.54-.54,.54-1.42,0-1.96s-1.42-.54-1.96,0l-3.88,3.88-3.88-3.88c-.54-.54-1.42-.54-1.96,0s-.54,1.42,0,1.96l3.88,3.88-3.88,3.88c-.54,.54-.54,1.42,0,1.96s1.42,.54,1.96,0l3.88-3.88,3.88,3.88c.54,.54,1.42,.54,1.96,0s.54-1.42,0-1.96Z"/>
  </g>
</svg>