<?xml version="1.0" encoding="UTF-8"?>
<svg id="Layer_1" data-name="Layer 1" xmlns="http://www.w3.org/2000/svg" xmlns:xlink="http://www.w3.org/1999/xlink" viewBox="0 0 43.21 50.1">
  <defs>
    <style>
      .cls-1 {
        fill: #44c2ea;
      }

      .cls-1, .cls-2, .cls-3, .cls-4, .cls-5, .cls-6 {
        fill-rule: evenodd;
      }

      .cls-2 {
        fill: #f6921e;
      }

      .cls-3 {
        fill: #ffd10e;
      }

      .cls-4 {
        fill: #bed63a;
      }

      .cls-5 {
        fill: #0273b2;
      }

      .cls-7 {
        mask: url(#mask);
      }

      .cls-6 {
        fill: #bc75b0;
      }
    </style>
    <mask id="mask" x="20.45" y="0" width="6.91" height="20.41" maskUnits="userSpaceOnUse"/>
  </defs>
  <path class="cls-5" d="M35.01,41.01c-1.43,4.39-5.04,7.69-9.99,8.63-4.83,.95-9.34,.39-12.01-1.17-2.07-1.21-2.88-2.46-2.86-4.84-.17-3.39,.35-10.74,2.07-13.71,.41-.71,1.05-1.27,2.14-1.63,1.75-.58,3.35-.57,3.16,.07-.88,2.94-2.94,11.88-1.83,14.43,.79,1.8,3.98,2.38,6.89,2.17,3.61-.27,6.17-1.59,7.49-5.17,.99-2.69,.75-5.96-.83-8.69-3.03-5.24-11.66-6-16.71-4.33-.82,.27-1.03,.64-1.27,.05-.68-1.63,.45-2.81,2.42-3.61,4.44-1.79,11.05-.89,15.3,1.47,6.43,3.57,7.96,10.45,6.04,16.32"/>
  <path class="cls-6" d="M8.25,34.85c-.4-.35-.81-.81-1.05-1.15-.98-1.34-1.96-2.67-2.95-4-.21-.29-.52-.45-.77-.7-.38-.38-1.15-.72-1.68-.73-.44,0-.89,.19-1.2,.52-.41,.45-.64,1.09-.6,1.7,.06,.82,.4,1.48,.79,2.18,.27,.5,.57,.98,.85,1.48,.79,1.38,1.56,2.8,2.46,4.11,.26,.38,1.7,2.54,2.82,3.71,1.01,1.05,1.76,1,1.69-.39-.07-1.41-.13-3.27-.06-3.96,.13-1.2,.6-1.98-.31-2.78"/>
  <path class="cls-2" d="M13.11,20.04c.13,.25,.19,.4,.49,.53,.32,.14,.62,.03,.93-.06,.35-.11,.67-.15,1.02-.25,.38-.1,.74-.08,1.14-.12,.32-.03,.66,0,.89-.26,.44-.49,.16-1.99,.06-2.64-.2-1.32-1.11-7.61-1.31-9.48-.16-1.54-.24-3.38-1.67-4.44-.96-.71-2.6-.38-3.03,.79-.47,1.31-.44,2.57-.33,3.93,.19,2.36,.59,4.75,.92,7.1,.15,1.07,.29,2.13,.44,3.2,.08,.53,.29,1.39,.45,1.7"/>
  <g class="cls-7">
    <path class="cls-3" d="M25.55,.02c.49,.07,.95,.35,1.31,.88,.38,.55,.5,.97,.5,1.62,0,1.89-1.5,16.73-1.59,17.09-.09,.34-.11,.68-.51,.78-.34,.08-.63-.09-.95-.15-.33-.07-.69-.14-1.02-.18-.68-.07-1.32-.06-2.01-.13-.71-.07-.86-.3-.8-.94,.03-.31,.03-.63,.05-.94,.19-3.1,.53-6.2,.95-9.29,.21-1.54,.44-3.08,.75-4.61,.18-.88,.32-1.94,.82-2.73,.6-.95,1.59-1.55,2.52-1.41"/>
  </g>
  <path class="cls-4" d="M35.19,4.81c.4,.03,.75,.21,1.08,.47,.72,.56,.58,2.36,.4,3.28-.45,2.26-3.6,12.78-3.78,13.2-.18,.42-.48,1.43-.9,1.54-.52,.14-1.05-.26-1.43-.51-.41-.27-.81-.52-1.24-.72-.33-.16-.56-.26-.92-.37-.28-.09-.69-.2-.76-.52-.06-.28,.22-1.09,.35-1.45,.22-.62,.38-1.08,.56-1.72,.45-1.58,.98-3.15,1.51-4.71,.48-1.41,.97-2.82,1.48-4.23,.25-.67,.45-1.4,.78-2.05,.41-.79,.75-1.4,1.55-1.86,.4-.23,.85-.4,1.31-.36"/>
  <path class="cls-1" d="M42.85,15.66c-.82-1.1-2-.5-2.74,.3-.81,.89-4.76,7.11-5.35,7.98-.3,.45-.63,.87-.5,1.44,.14,.6,.59,1.16,.92,1.67,.17,.26,.34,.5,.47,.78,.12,.23,.26,.43,.5,.54,.26,.11,.57,.05,.97-.33,.49-.46,.8-1.08,1.18-1.63,.89-1.28,1.69-2.62,2.46-3.98,.52-.91,1.02-1.83,1.52-2.76,.57-1.05,1.41-2.89,.56-4.03"/>
</svg>