<?xml version="1.0" encoding="UTF-8"?>
<svg id="Layer_2" data-name="Layer 2" xmlns="http://www.w3.org/2000/svg" viewBox="0 0 35.2 35.2">
  <defs>
    <style>
      .cls-1 {
        fill: #fff;
        fill-rule: evenodd;
      }

      .cls-2 {
        fill: #02aa8d;
      }
    </style>
  </defs>
  <g id="Layer_1-2" data-name="Layer 1">
    <circle class="cls-2" cx="17.6" cy="17.6" r="17.6"/>
    <g>
      <path class="cls-1" d="M24.01,25.23c-.68,2.1-2.41,3.67-4.77,4.12-2.31,.45-4.46,.19-5.74-.56-.99-.58-1.38-1.18-1.37-2.31-.08-1.62,.17-5.13,.99-6.55,.2-.34,.5-.61,1.02-.78,.84-.28,1.6-.27,1.51,.03-.42,1.4-1.4,5.68-.87,6.89,.38,.86,1.9,1.14,3.29,1.04,1.72-.13,2.95-.76,3.58-2.47,.47-1.29,.36-2.85-.4-4.15-1.45-2.5-5.57-2.87-7.98-2.07-.39,.13-.49,.31-.61,.02-.32-.78,.22-1.34,1.16-1.72,2.12-.86,5.28-.43,7.31,.7,3.07,1.71,3.8,4.99,2.89,7.8"/>
      <path class="cls-1" d="M11.22,22.28c-.19-.17-.39-.39-.5-.55-.47-.64-.94-1.28-1.41-1.91-.1-.14-.25-.22-.37-.33-.18-.18-.55-.34-.8-.35-.21,0-.43,.09-.57,.25-.2,.22-.31,.52-.29,.81,.03,.39,.19,.71,.38,1.04,.13,.24,.27,.47,.41,.71,.38,.66,.75,1.34,1.18,1.96,.12,.18,.81,1.21,1.35,1.77,.48,.5,.84,.48,.81-.19-.03-.67-.06-1.56-.03-1.89,.06-.57,.29-.95-.15-1.33"/>
      <path class="cls-1" d="M13.54,15.21c.06,.12,.09,.19,.23,.25,.15,.07,.3,.01,.44-.03,.17-.05,.32-.07,.49-.12,.18-.05,.35-.04,.54-.06,.15-.01,.32,0,.43-.12,.21-.23,.08-.95,.03-1.26-.1-.63-.53-3.64-.63-4.53-.08-.74-.11-1.61-.8-2.12-.46-.34-1.24-.18-1.45,.38-.22,.63-.21,1.23-.16,1.88,.09,1.13,.28,2.27,.44,3.39,.07,.51,.14,1.02,.21,1.53,.04,.25,.14,.66,.22,.81"/>
      <path class="cls-1" d="M19.49,5.64c.23,.03,.45,.17,.63,.42,.18,.26,.24,.46,.24,.77,0,.9-.72,7.99-.76,8.17-.04,.16-.05,.32-.24,.37-.16,.04-.3-.04-.45-.07-.16-.03-.33-.07-.49-.09-.32-.03-.63-.03-.96-.06-.34-.03-.41-.14-.38-.45,.01-.15,.01-.3,.02-.45,.09-1.48,.25-2.96,.45-4.44,.1-.74,.21-1.47,.36-2.2,.09-.42,.15-.93,.39-1.3,.29-.45,.76-.74,1.2-.67"/>
      <path class="cls-1" d="M24.09,7.93c.19,.01,.36,.1,.52,.22,.34,.27,.28,1.13,.19,1.57-.22,1.08-1.72,6.11-1.81,6.31-.09,.2-.23,.68-.43,.74-.25,.07-.5-.12-.68-.24-.2-.13-.39-.25-.59-.34-.16-.08-.27-.12-.44-.18-.13-.04-.33-.1-.36-.25-.03-.13,.11-.52,.17-.69,.11-.3,.18-.52,.27-.82,.22-.75,.47-1.51,.72-2.25,.23-.67,.46-1.35,.71-2.02,.12-.32,.22-.67,.37-.98,.2-.38,.36-.67,.74-.89,.19-.11,.41-.19,.63-.17"/>
      <path class="cls-1" d="M27.75,13.11c-.39-.53-.96-.24-1.31,.14-.39,.43-2.27,3.4-2.56,3.81-.14,.22-.3,.42-.24,.69,.07,.29,.28,.55,.44,.8,.08,.12,.16,.24,.22,.37,.06,.11,.12,.21,.24,.26,.12,.05,.27,.02,.46-.16,.23-.22,.38-.52,.56-.78,.43-.61,.81-1.25,1.18-1.9,.25-.43,.49-.87,.73-1.32,.27-.5,.67-1.38,.27-1.93"/>
    </g>
  </g>
</svg>