<?xml version="1.0" encoding="UTF-8"?>
<svg id="Layer_2" data-name="Layer 2" xmlns="http://www.w3.org/2000/svg" viewBox="0 0 211.82 45.13">
  <defs>
    <style>
      .cls-1 {
        letter-spacing: -.01em;
      }

      .cls-2 {
        letter-spacing: 0em;
      }

      .cls-3 {
        letter-spacing: 0em;
      }

      .cls-4 {
        fill: #231f20;
        font-family: FiraSans-Medium, 'Fira Sans Medium';
        font-size: 23px;
      }

      .cls-5 {
        fill: #00afaa;
      }

      .cls-6 {
        fill: #5c2c85;
      }
    </style>
  </defs>
  <g id="Layer_1-2" data-name="Layer 1">
    <text class="cls-4" transform="translate(49.7 31.05)"><tspan class="cls-1" x="0" y="0">S</tspan><tspan class="cls-3" x="12.63" y="0">TREAM </tspan><tspan class="cls-2" x="89.58" y="0">R</tspan><tspan class="cls-3" x="103.52" y="0">eport</tspan></text>
    <g>
      <path class="cls-5" d="M12.09,26.97l-6.52-9.57c-1.03-1.52-.84-3.45,.43-4.32l10.87-7.41c1.27-.87,3.14-.34,4.18,1.17l6.52,9.57,3.68-2.51-6.34-9.3C21.93,.22,16.52-1.3,12.83,1.21L3.18,7.79C-.51,10.3-1.07,15.89,1.92,20.28l6.34,9.3,3.83-2.61Z"/>
      <path class="cls-6" d="M28.7,18.06l6.34,9.3c1.03,1.52,.84,3.45-.44,4.32l-10.87,7.41c-1.27,.87-3.14,.34-4.18-1.17l-6.34-9.3-3.83,2.61,6.34,9.3c2.99,4.38,8.4,5.9,12.08,3.39l9.66-6.58c3.68-2.51,4.25-8.1,1.26-12.48l-6.34-9.3-3.68,2.51Z"/>
    </g>
  </g>
</svg>