<?xml version="1.0" encoding="UTF-8"?>
<svg id="Layer_2" data-name="Layer 2" xmlns="http://www.w3.org/2000/svg" viewBox="0 0 72.31 80.31">
  <defs>
    <style>
      .cls-1 {
        fill: #00afaa;
      }

      .cls-2 {
        fill: #5c2c85;
      }
    </style>
  </defs>
  <g id="Layer_1-2" data-name="Layer 1">
    <g>
      <path class="cls-1" d="M21.52,47.99L9.91,30.96c-1.84-2.7-1.49-6.14,.77-7.68L30.03,10.09c2.27-1.55,5.6-.61,7.44,2.09l11.61,17.03,6.55-4.46-11.29-16.56C39.02,.39,29.39-2.31,22.84,2.15L5.65,13.87C-.9,18.33-1.9,28.28,3.42,36.08l11.29,16.56,6.82-4.65Z"/>
      <path class="cls-2" d="M51.06,32.13l11.28,16.55c1.84,2.7,1.49,6.14-.77,7.68l-19.34,13.18c-2.27,1.55-5.6,.61-7.43-2.09l-11.28-16.55-6.82,4.65,11.29,16.56c5.32,7.8,14.94,10.51,21.49,6.04l17.19-11.71c6.55-4.47,7.56-14.41,2.24-22.21l-11.29-16.56-6.55,4.46Z"/>
    </g>
  </g>
</svg>